# xmcd CD database file
#
# Track frame offsets:
#	150
#	10044
#	22937
#	33349
#	51047
#	61644
#	72994
#	84379
#	99609
#	108872
#	126208
#	137588
#	149301
#	164441
#
# Disc length: 2517 seconds
#
# Revision: 2
# Processed by: cddbd v1.5.2PL0 Copyright (c) Steve Scherf et al.
# Submitted via: CDex 1.40Release
#
DISCID=ad09d30e
DTITLE=Antonio Carlos Jobim - pure bossa nova
DYEAR=2005
DGENRE=Jazz
TTITLE0=Samba do aviao
TTITLE1=Wave
TTITLE2=Este seu olhar/ So em teus bracos
TTITLE3=Aguas de marco
TTITLE4=Corcovado
TTITLE5=Desafinado
TTITLE6=Ela e carioca
TTITLE7=Chovendo na roseira
TTITLE8=Triste
TTITLE9=Dindi/ Eu sei que vou te amar
TTITLE10=Luiza
TTITLE11=Vivo sonhando (Dreamer)
TTITLE12=Bonita
TTITLE13=Ana Luiza
EXTD=YEAR: 2005 ID3G: 8
EXTT0=
EXTT1=
EXTT2=
EXTT3=
EXTT4=
EXTT5=
EXTT6=
EXTT7=
EXTT8=
EXTT9=
EXTT10=
EXTT11=
EXTT12=
EXTT13=
PLAYORDER=
